<svg version="1.1" xmlns="http://www.w3.org/2000/svg" xmlns:xlink="http://www.w3.org/1999/xlink" viewBox="85 393 861 194">
<path fill="#ff6347" opacity="1.000000" stroke="none"
    d="
M228.493225,621.571533
    C219.129166,627.051758 210.057648,632.315186 200.998947,637.600708
    C198.567596,639.019287 196.230347,639.612183 193.501999,638.099121
    C165.607727,622.629822 139.097000,605.318054 115.512703,583.559082
    C93.619324,563.360168 84.910904,538.558472 85.417961,509.356293
    C85.868561,483.405243 85.232849,457.435608 85.111816,431.474030
    C85.093994,427.650269 85.396057,423.823059 85.318024,420.002167
    C85.255096,416.921143 87.495110,416.128845 89.605309,415.211456
    C108.455124,407.016785 128.085831,401.471405 148.262405,397.645813
    C169.325302,393.652191 190.597977,392.731049 211.885468,393.857208
    C243.101791,395.508575 273.595612,400.971344 302.526337,413.552032
    C306.834839,415.425629 308.408112,417.750763 308.376160,422.478546
    C308.165802,453.631012 308.603851,484.790649 308.139801,515.937683
    C307.779480,540.124512 299.697113,561.392944 282.288055,578.908386
    C266.098907,595.196411 248.008911,608.958740 228.493225,621.571533
M116.743523,488.147339
    C115.794029,475.409698 120.975136,465.161469 129.747055,456.432617
    C135.338058,450.868988 141.757874,446.366882 148.759155,442.793884
    C174.449524,429.683167 202.372681,424.392853 230.447174,419.626526
    C236.805466,418.547028 243.362350,418.367950 249.494141,416.015594
    C224.269852,411.066315 198.964249,410.017365 173.473923,412.109772
    C150.958740,413.957947 129.192078,419.013550 107.894707,426.402985
    C103.900642,427.788788 101.860596,429.791290 102.246742,434.326416
    C102.640961,438.956360 102.241409,443.648376 102.339272,448.310028
    C102.880699,474.097443 100.993919,499.924500 103.354774,525.676331
    C104.971611,543.312500 113.456657,557.443298 126.468498,569.100098
    C127.855209,570.342407 129.164871,571.037659 130.837830,569.643372
    C141.127914,561.067139 147.942154,549.637939 141.400635,534.927429
    C138.817734,529.119080 135.371506,523.820862 131.631851,518.694275
    C125.032310,509.647217 118.847984,500.378479 116.743523,488.147339
M252.202438,444.791656
    C244.305038,448.327576 236.258606,451.584503 228.854065,456.105042
    C211.419373,466.748993 210.554031,478.195648 226.529572,490.751831
    C237.910156,499.696564 249.779068,508.017120 261.295441,516.792908
    C270.512726,523.816711 277.813873,532.239014 279.941833,544.187622
    C280.266266,546.009277 279.696503,548.117798 281.271423,550.077454
    C282.115326,549.102417 282.960388,548.469116 283.347595,547.625671
    C287.255402,539.113708 290.543060,530.321167 290.624908,520.869446
    C290.868500,492.729645 290.815216,464.587067 290.830841,436.445587
    C290.833862,430.977081 290.031891,430.519440 284.513123,432.187042
    C273.655731,435.467987 263.310730,440.063080 252.202438,444.791656
M215.437012,560.335632
    C212.024353,560.730957 207.815247,559.000610 206.057968,563.826782
    C202.218735,574.370544 194.836334,582.158752 186.257904,588.924255
    C180.578705,593.403259 174.652206,597.568726 168.674576,601.994324
    C172.503448,605.659363 176.959335,607.635742 180.833405,610.440918
    C182.599213,611.719543 183.836426,610.803894 185.232513,609.715698
    C195.113556,602.013916 204.120285,593.402344 211.403671,583.201416
    C216.192062,576.494934 220.562805,569.431091 222.048477,560.336853
    C219.860077,560.336853 218.077042,560.336853 215.437012,560.335632
M186.981445,512.269104
    C187.705765,513.365662 188.306900,514.572510 189.174103,515.541077
    C195.466873,522.569275 203.330017,528.257141 207.477814,537.116516
    C207.924118,538.069824 208.867874,538.573914 209.935791,538.558289
    C213.866196,538.500732 217.843170,539.183533 221.897476,538.033020
    C222.277420,534.635742 220.710587,532.151489 218.896027,529.743103
    C213.085663,522.031250 205.249969,516.692932 197.452881,511.277771
    C193.783768,508.729492 190.423965,508.790253 186.981445,512.269104
M176.166687,466.155121
    C177.024643,464.769989 177.675842,463.283691 175.576767,462.538300
    C173.941650,461.957703 172.124344,460.911438 170.491776,462.677979
    C165.822403,467.730286 162.414276,473.340790 163.724319,480.570190
    C164.918060,487.157806 166.080566,487.717712 173.214355,485.822510
    C172.136902,479.258484 171.689041,472.657867 176.166687,466.155121
M202.623077,443.226562
    C199.378922,444.595581 196.021744,445.764465 193.526550,448.609222
    C202.733109,449.114624 209.594620,443.233551 217.456863,440.076874
    C212.004654,437.914764 207.960159,441.722015 202.623077,443.226562
z"/>
<path fill="#ff6347" opacity="1.000000" stroke="none"
    d="
M583.365845,586.223877
    C576.101135,586.267578 569.256836,586.014709 562.445618,586.379272
    C558.222229,586.605286 556.457153,585.025635 555.816711,581.019897
    C554.584839,573.315247 552.922729,565.679321 551.700867,557.973328
    C551.088135,554.109314 549.704163,552.105286 545.314209,552.298462
    C537.831909,552.627747 530.324097,552.436157 522.828064,552.362671
    C520.095947,552.335938 518.616333,553.176025 518.111450,556.169434
    C516.675720,564.681702 514.835876,573.125183 513.334900,581.627502
    C512.749023,584.946106 511.357544,586.470154 507.746490,586.367065
    C499.808594,586.140381 491.859772,586.296753 483.442108,586.296753
    C483.705322,578.536438 485.716766,571.840332 487.062988,565.080139
    C496.179352,519.302368 505.460571,473.557373 514.658569,427.795776
    C516.082336,420.712128 516.011353,420.692688 523.148376,420.687225
    C530.811829,420.681335 538.492310,420.996033 546.132385,420.573608
    C550.897522,420.310120 552.472961,422.389221 553.311157,426.583496
    C557.507812,447.582184 561.872620,468.547363 566.204102,489.518982
    C572.449890,519.758972 578.749390,549.987915 584.902100,580.246826
    C585.290466,582.157104 587.216797,584.799927 583.365845,586.223877
M533.131104,467.195892
    C532.662598,469.636597 532.176575,472.074097 531.728333,474.518524
    C528.733582,490.850769 525.775085,507.189789 522.725952,523.511841
    C522.288879,525.851685 522.348328,527.578186 525.290527,527.588745
    C532.075562,527.613220 538.860779,527.596558 546.540955,527.596558
    C542.777710,506.100677 539.140503,485.324554 535.503235,464.548431
    C535.025635,464.613190 534.548096,464.677917 534.070496,464.742645
    C533.821533,465.346375 533.572632,465.950073 533.131104,467.195892
z"/>
<path fill="#ff6347" opacity="1.000000" stroke="none"
    d="
M756.668762,444.495422
    C766.450073,491.700226 776.100647,538.503052 785.923889,586.143005
    C776.347290,586.143005 767.591431,586.260376 758.842041,586.072510
    C756.165833,586.015076 756.315857,583.212036 755.950806,581.428284
    C754.386230,573.783997 752.888550,566.118652 751.680115,558.411743
    C751.014221,554.164612 749.516479,551.976440 744.669678,552.281189
    C737.863586,552.709045 730.992981,552.680847 724.183105,552.282043
    C719.570557,552.011963 718.057800,554.144043 717.401306,558.143311
    C716.137146,565.843567 714.540283,573.489502 713.295471,581.192505
    C712.687988,584.951294 711.053284,586.537109 707.035828,586.381042
    C699.417969,586.085266 691.780396,586.295410 683.704102,586.295410
    C683.418030,578.833618 685.638977,572.325012 686.934387,565.765625
    C696.011597,519.801147 705.332764,473.884796 714.567871,427.951447
    C716.025269,420.702393 716.006409,420.697449 723.432617,420.697845
    C731.265686,420.698242 739.104431,420.877075 746.929443,420.626709
    C750.683472,420.506561 752.318176,421.896240 752.917297,425.513306
    C753.947998,431.735840 755.313171,437.903015 756.668762,444.495422
M722.442749,525.374084
    C722.744934,528.150818 724.920227,527.587280 726.632812,527.619507
    C730.785156,527.697632 734.939758,527.664124 739.093384,527.651611
    C745.755432,527.631653 746.534790,526.644287 745.336182,520.015747
    C743.744873,511.216003 742.200317,502.407837 740.626465,493.604950
    C738.797668,483.376312 736.958862,473.149445 735.124451,462.921783
    C733.553589,465.519897 732.828430,468.158844 732.332825,470.840210
    C729.023315,488.746063 725.762756,506.660950 722.442749,525.374084
z"/>
<path fill="#ff6347" opacity="1.000000" stroke="none"
    d="
M592.988525,571.630249
    C589.230896,562.271118 590.796753,552.840454 590.729248,543.589905
    C590.638367,531.144470 588.827637,532.844482 601.456726,532.704224
    C605.287109,532.661682 609.136047,532.929260 612.944580,532.637878
    C617.376221,532.298767 619.326904,533.627625 619.017212,538.454041
    C618.655640,544.089294 619.098755,549.772461 619.071106,555.434204
    C619.052551,559.239502 620.764526,560.795044 624.580017,560.682617
    C630.404358,560.510925 636.240479,560.532776 642.066101,560.683228
    C645.495117,560.771790 646.960999,559.290588 646.922913,555.963074
    C646.844727,549.138916 646.878296,542.313049 646.747009,535.490112
    C646.671692,531.574463 644.837891,528.563965 641.657349,526.239075
    C629.292419,517.200562 617.111816,507.902893 604.593140,499.084229
    C594.883545,492.244476 590.471069,483.119202 590.629517,471.434143
    C590.744629,462.941193 590.610229,454.445129 590.670837,445.951050
    C590.778259,430.897797 600.684448,420.871704 615.732971,420.704773
    C626.557983,420.584656 637.385315,420.661407 648.211609,420.679108
    C665.242798,420.706940 674.136597,428.925446 675.125549,446.022247
    C675.548096,453.326874 675.167664,460.675598 675.260925,468.002899
    C675.298645,470.966797 674.050354,472.224518 671.085571,472.182404
    C664.424500,472.087799 657.760864,472.072266 651.099548,472.143768
    C648.072754,472.176239 646.958130,470.783752 647.011780,467.876465
    C647.109924,462.548370 646.945984,457.214630 647.084656,451.888306
    C647.186462,447.977966 645.842224,446.029327 641.589722,446.208466
    C635.936829,446.446594 630.260742,446.417633 624.605286,446.210968
    C620.828430,446.072998 619.006958,447.420502 619.067993,451.318878
    C619.156738,456.979095 619.197449,462.645569 619.030640,468.302673
    C618.870972,473.716614 621.462341,477.298309 625.712463,480.305725
    C636.856384,488.191101 647.770691,496.401947 658.945923,504.241669
    C668.318237,510.816559 674.622070,519.048218 674.973389,530.940308
    C675.282898,541.416565 676.020630,551.922241 674.526245,562.347351
    C672.296875,577.899658 666.820312,583.918823 651.437012,585.623108
    C638.393860,587.068115 625.191895,586.819824 612.069641,585.587708
    C603.112488,584.746826 597.053101,579.862976 592.988525,571.630249
z"/>
<path fill="#ff6347" opacity="1.000000" stroke="none"
    d="
M344.614929,475.215759
    C340.928650,457.112640 337.296936,439.428467 333.533447,421.102509
    C343.259369,420.356354 352.346954,420.540619 361.420502,420.944916
    C363.799316,421.050934 363.730988,423.640167 364.021118,425.275513
    C366.863525,441.295471 369.530518,457.346405 372.323364,473.375305
    C375.656433,492.504761 379.030273,511.627350 382.487610,530.734619
    C382.863525,532.811951 383.907867,534.768311 384.812103,537.246582
    C388.798431,520.648438 390.718475,504.050598 393.647797,487.641479
    C397.381287,466.727539 401.012726,445.794495 404.492249,424.837158
    C405.019562,421.661285 406.334381,420.610962 409.357971,420.655426
    C416.520325,420.760773 423.687439,420.788177 430.848450,420.641418
    C434.837311,420.559692 435.529480,422.082031 434.766571,425.837219
    C426.431274,466.864655 418.249115,507.923248 410.034576,548.975159
    C407.819763,560.043640 405.525482,571.098267 403.509766,582.203186
    C402.944397,585.317871 401.574768,586.385437 398.537567,586.344177
    C389.875763,586.226440 381.208008,586.160400 372.549469,586.365112
    C368.879608,586.451843 367.292419,585.240967 366.542847,581.518738
    C361.035278,554.168396 355.309662,526.862000 349.648132,499.542725
    C347.996277,491.571808 346.329498,483.603943 344.614929,475.215759
z"/>
<path fill="#ff6347" opacity="1.000000" stroke="none"
    d="
M904.546570,447.132935
    C902.763977,460.683960 903.776428,473.996552 903.463562,487.281708
    C903.382507,490.723602 905.806030,490.747955 908.266296,490.744293
    C917.261963,490.730896 926.257690,490.740021 935.253357,490.740631
    C937.058960,490.740753 938.864624,490.740662 941.078796,490.740662
    C941.939331,497.042908 939.367981,502.524902 939.030823,508.221649
    C938.953064,509.535126 938.399414,510.824585 938.354614,512.135010
    C938.230835,515.757751 936.367859,517.028259 932.879395,516.921875
    C924.726379,516.673279 916.558228,516.805298 908.415100,516.402222
    C904.632446,516.214966 903.386536,517.534790 903.417297,521.163025
    C903.514893,532.656311 903.515137,544.152466 903.354004,555.644653
    C903.305847,559.081909 904.894409,559.915405 907.906067,559.896362
    C918.733704,559.827759 929.561951,559.867310 940.390015,559.881958
    C942.034912,559.884155 943.720886,559.689697 945.985352,560.871826
    C944.706787,568.469788 943.461365,576.251770 942.050232,584.003601
    C941.671631,586.083313 939.738098,586.151306 938.043335,586.152771
    C918.719360,586.169434 899.395142,586.113647 880.071716,586.213440
    C875.932251,586.234802 875.660156,583.851929 875.668274,580.694397
    C875.721741,559.871155 875.694092,539.047668 875.694580,518.224304
    C875.695312,487.738861 875.794434,457.252808 875.599670,426.768616
    C875.568665,421.907471 877.104858,420.531677 881.862061,420.586823
    C901.516724,420.814667 921.176147,420.762360 940.832336,420.614258
    C945.161560,420.581665 946.959351,421.510986 945.756226,426.308289
    C944.508667,431.282745 943.989258,436.446869 943.273376,441.545166
    C942.805847,444.875183 941.295105,446.375000 937.691772,446.296356
    C928.534058,446.096649 919.368591,446.225891 910.206543,446.275116
    C908.400085,446.284821 906.530090,445.928223 904.546570,447.132935
z"/>
<path fill="#ff6347" opacity="1.000000" stroke="none"
    d="
M793.654419,511.999939
    C793.654297,483.352448 793.772583,455.204041 793.544861,427.058411
    C793.503784,421.989227 794.995239,420.515381 800.035767,420.582062
    C819.852112,420.844208 839.673950,420.678894 859.493774,420.698303
    C861.122070,420.699921 862.750244,420.897247 865.157959,421.054565
    C863.751465,429.102325 862.531982,436.728607 861.028320,444.298431
    C860.560364,446.654236 858.185791,446.218781 856.417114,446.226654
    C846.757202,446.269745 837.094971,446.372314 827.438110,446.198090
    C823.633911,446.129456 822.088806,447.307953 822.160461,451.325500
    C822.365295,462.813965 822.366943,474.310913 822.158752,485.799286
    C822.084900,489.874451 823.737305,490.929749 827.492310,490.853180
    C836.482361,490.669830 845.478882,490.780914 854.472595,490.813110
    C856.260986,490.819489 858.137573,490.492584 860.330261,492.007874
    C859.010620,499.447113 857.653198,507.078979 856.304626,514.712402
    C855.811523,517.503357 853.619812,517.262390 851.648254,517.271362
    C843.820435,517.307007 835.983215,517.519348 828.167908,517.206726
    C823.632080,517.025330 822.090332,518.416016 822.145874,523.095825
    C822.371277,542.080017 822.100891,561.070068 822.304199,580.054810
    C822.354370,584.738403 821.078430,586.721375 816.134399,586.372803
    C810.830872,585.998901 805.480896,586.299255 800.151245,586.275330
    C793.679199,586.246277 793.658447,586.232666 793.655640,579.454529
    C793.646301,557.136353 793.653503,534.818115 793.654419,511.999939
z"/>
<path fill="#ff6347" opacity="1.000000" stroke="none"
    d="
M445.797974,447.000000
    C445.793304,439.505127 445.931030,432.506104 445.727478,425.517029
    C445.618683,421.780701 447.093842,420.517303 450.715607,420.628845
    C456.871918,420.818420 463.044739,420.851288 469.198151,420.619080
    C473.048523,420.473846 474.454041,421.720306 474.399200,425.729614
    C474.201019,440.216278 474.332703,454.707428 474.334839,469.196869
    C474.340240,506.003387 474.347809,542.809937 474.342224,579.616455
    C474.341187,586.269043 474.314240,586.277527 467.834747,586.291199
    C462.671875,586.302124 457.488800,586.004822 452.351746,586.367981
    C447.359650,586.720886 445.582703,585.015076 445.702240,579.901062
    C446.001923,567.084106 445.807861,554.255554 445.807220,541.431641
    C445.805664,510.121094 445.801514,478.810547 445.797974,447.000000
z"/>
</svg>